<?xml version="1.0" encoding="utf-8"?>
<!-- Generator: Adobe Illustrator 17.0.0, SVG Export Plug-In . SVG Version: 6.00 Build 0)  -->
<!DOCTYPE svg PUBLIC "-//W3C//DTD SVG 1.1//EN" "http://www.w3.org/Graphics/SVG/1.1/DTD/svg11.dtd">
<svg version="1.1" id="Ebene_1" xmlns="http://www.w3.org/2000/svg" xmlns:xlink="http://www.w3.org/1999/xlink" x="0px" y="0px"
	 width="34px" height="34px" viewBox="0 0 34 34" enable-background="new 0 0 34 34" xml:space="preserve">
<g transform="translate(0.000000,120.000000) scale(0.100000,-0.100000)">
	<path fill="#FFFFFF" d="M117.465,1179.291l-6.968-1.951l-0.836-106.474l-0.557-106.474H96.561H84.018v100.342
		c0,66.059-0.836,100.342-2.787,100.342c-1.672,0-7.247-2.787-12.543-6.132l-9.756-6.411v-106.474V939.305h25.086h25.086v-27.594
		v-27.315l8.641-1.951c4.738-0.836,9.756-1.672,11.149-1.672s2.509,13.1,2.509,29.267v29.267h69.682h69.404l7.247,10.313
		c3.902,5.853,6.968,11.428,6.968,12.543s-34.284,2.509-75.814,2.787l-76.093,0.836v11.149v11.149l81.389,0.836l81.668,0.557
		l1.394,6.411c3.902,18.954,10.87,17.281-71.076,18.117l-73.584,0.557l56.861,57.139l57.139,57.139l-9.198,8.919l-8.919,9.198
		l-58.533-58.533l-58.533-58.533v76.093c0,58.812-0.836,75.814-3.345,75.536C126.106,1181.242,121.367,1180.405,117.465,1179.291z"
		/>
</g>
</svg>
